<svg width="118" height="19" viewBox="0 0 118 19" fill="none" xmlns="http://www.w3.org/2000/svg">
<path d="M0 17.808H4.32V12.168H10.392C14.712 12.168 17.352 10.008 17.352 6.48C17.352 2.904 14.736 0.720001 10.416 0.720001H0V17.808ZM4.32 9.168V3.696H9.456C11.688 3.696 13.008 4.728 13.008 6.432C13.008 8.136 11.664 9.168 9.456 9.168H4.32Z" fill="#C3C7D4"/>
<path d="M26.6014 18.264C29.6254 18.264 32.3854 17.208 33.7054 15.72L31.9054 13.824C30.9214 14.808 28.9294 15.528 26.8174 15.528C24.4174 15.528 22.4494 14.496 22.0654 12.744H33.3694C33.4654 12.36 33.5134 11.856 33.5134 11.448C33.5134 7.68 30.4174 5.064 25.8574 5.064C21.1774 5.064 17.9134 7.752 17.9374 11.568C17.9374 15.528 21.5134 18.264 26.6014 18.264ZM22.0174 10.56C22.2334 8.88 23.7934 7.728 25.8094 7.728C27.8254 7.728 29.3614 8.76 29.5054 10.56H22.0174Z" fill="#C3C7D4"/>
<path d="M35.3604 17.808H39.2724V0H35.3604V17.808Z" fill="#C3C7D4"/>
<path d="M49.0193 18.264C53.9633 18.264 57.2033 15.648 57.2033 11.664C57.2033 7.68 53.9633 5.064 49.0193 5.064C44.0753 5.064 40.8592 7.68 40.8592 11.664C40.8592 15.648 44.0753 18.264 49.0193 18.264ZM49.0193 15.384C46.4273 15.384 44.7472 13.92 44.7472 11.664C44.7472 9.408 46.4273 7.944 49.0193 7.944C51.6353 7.944 53.3153 9.408 53.3153 11.664C53.3153 13.92 51.6353 15.384 49.0193 15.384Z" fill="#C3C7D4"/>
<path d="M66.1007 18.264C68.4767 18.264 70.4687 17.304 71.5967 15.552L70.2287 13.368C69.4607 14.616 68.3567 15.312 66.9647 15.312C65.5007 15.312 64.6367 14.448 64.6367 12.936V8.256H70.9727V5.52H64.6367V1.272L60.7007 2.064V5.52H57.6287V8.256H60.7247V13.608C60.7247 16.488 62.7647 18.264 66.1007 18.264Z" fill="#C3C7D4"/>
<path d="M80.9998 18.264C84.0238 18.264 86.7838 17.208 88.1038 15.72L86.3038 13.824C85.3198 14.808 83.3278 15.528 81.2158 15.528C78.8158 15.528 76.8478 14.496 76.4638 12.744H87.7678C87.8638 12.36 87.9118 11.856 87.9118 11.448C87.9118 7.68 84.8158 5.064 80.2558 5.064C75.5758 5.064 72.3118 7.752 72.3358 11.568C72.3358 15.528 75.9118 18.264 80.9998 18.264ZM76.4158 10.56C76.6318 8.88 78.1918 7.728 80.2078 7.728C82.2238 7.728 83.7598 8.76 83.9038 10.56H76.4158Z" fill="#C3C7D4"/>
<path d="M96.8629 18.24C100.871 18.24 103.775 16.704 103.775 13.992C103.775 11.712 101.927 10.728 98.4469 10.272L95.8309 9.984C94.2229 9.768 93.4549 9.456 93.4549 8.784C93.4549 8.04 94.7269 7.512 96.4069 7.512C98.2309 7.512 99.8629 8.208 100.559 9.24L102.839 7.968C101.831 6.24 99.3589 5.088 96.5029 5.088C92.7109 5.088 90.0469 6.552 90.0469 9.192C90.0229 11.352 91.7509 12.336 94.8949 12.696L97.5109 12.984C99.3109 13.2 100.271 13.584 100.271 14.304C100.271 15.144 98.9029 15.696 96.8389 15.696C94.4629 15.696 92.3029 14.784 91.6069 13.44L89.2069 14.664C90.0949 16.896 93.2629 18.24 96.8629 18.24Z" fill="#C3C7D4"/>
<path d="M112.437 18.264C114.813 18.264 116.805 17.304 117.933 15.552L116.565 13.368C115.797 14.616 114.693 15.312 113.301 15.312C111.837 15.312 110.973 14.448 110.973 12.936V8.256H117.309V5.52H110.973V1.272L107.037 2.064V5.52H103.965V8.256H107.061V13.608C107.061 16.488 109.101 18.264 112.437 18.264Z" fill="#C3C7D4"/>
</svg>
